<svg width="164px" height="184px" viewBox="0 0 164 184">
    <title>Web Fountain Logo</title>
    <g id="logo" stroke="none" strokeWidth="1" fill="none" fillRule="evenodd">
        <g id="WebFountainLogo" fill="#0B69AF">
            <path d="M33.3706665,164.063432 L27.0872788,169.640381 L30,172.959985 L30.994932,173.967962 L32,174.901945 L33,175.749369 L34.2754253,176.745075 C34.6509748,177.051438 34.9420133,177.275749 35.1485409,177.418009 C35.3550684,177.560268 35.6836126,177.762736 36.1341733,178.025412 L37.058526,178.66886 L38,179.196242 L39.5089135,180.028558 L41.2053801,180.833461 C41.8044041,181.077494 42.2599205,181.260962 42.5719293,181.383864 C42.8839381,181.506766 43.364448,181.692005 44.0134591,181.93958 C44.8939787,182.18634 45.556159,182.363328 46,182.470546 C46.443841,182.577764 47.1131836,182.722429 48.0080278,182.904542 L52.0389906,183.251843 L57.026359,183.015959 L63,182.000759 L68.9954543,180.028558 L72.2929047,178.368246 L75.5079739,176.452591 L78.6760574,178.330295 L80.3298004,179.196242 L82.0200283,179.977236 L83.4808316,180.576814 L84.9598999,181.097702 L87.9948278,181.971436 L89.9966708,182.400411 L92.0474543,182.737423 L94.0836756,182.967795 L96.0940837,183.137679 L99.0982684,183.20192 L100.602154,183.137679 L102.077319,183.015959 L104.560177,182.571087 L106.988982,181.93958 L108.534385,181.383864 L110.414689,180.576814 L112.27872,179.630226 L114.064582,178.581837 L115.590985,177.578777 L117,176.537484 L118.547708,175.27265 L120.008484,173.967962 L121.022758,172.921287 L121.987607,171.827536 L123.928669,169.640381 L117.64454,164.063432 L115.066151,166.961864 L113.015167,169.003412 L110,171.248244 L106.988982,172.891555 L105.532928,173.516785 L104.001373,174.036636 L103.02774,174.32113 L102.034775,174.52002 L101.040787,174.664642 L99.9932404,174.76685 C99.3325127,174.791247 98.8362715,174.80216 98.5045166,174.799589 C98.1727617,174.797019 97.6726498,174.778607 97.0041809,174.744354 L95.4986725,174.664642 L93.9955444,174.52002 L92.495163,174.295303 L90.9963074,174.015839 C90.3295711,173.870187 89.8294542,173.754164 89.4959564,173.66777 C89.1624587,173.581377 88.6620825,173.438219 87.9948278,173.238297 L87.2394867,172.996994 L86.4903564,172.720535 L85,172.117414 L83.9993439,171.648468 L82.9949036,171.130646 L81.5153961,170.257828 L80,169.348969 L80,112.375394 L104.78782,112.375394 L104.78782,104.257339 L80,104.194925 L80,98.4859777 C80.1373215,97.6892731 80.247255,97.097495 80.3298004,96.7106435 C80.4123459,96.323792 80.5500489,95.7550156 80.7429094,95.0043143 C81.0045735,94.2857487 81.2063566,93.7595595 81.3482587,93.4257468 C81.4901608,93.0919341 81.7301136,92.6166852 82.068117,92 C82.2759619,91.6933804 82.4313725,91.4702994 82.5343488,91.3307569 C82.6373251,91.1912143 82.7908434,90.9956678 82.9949036,90.7441172 C83.2072511,90.513295 83.3692271,90.3462352 83.4808316,90.2429379 C83.5924361,90.1396406 83.7652735,89.9968084 83.9993439,89.8144414 L85,89.1013867 C85.6608123,88.7717115 86.1575978,88.5431424 86.4903564,88.4156795 C86.8231151,88.2882165 87.3246055,88.1249425 87.9948278,87.9258575 L89.4959564,87.6220093 L90.9963074,87.4300537 C91.6716504,87.3660833 92.1771588,87.33248 92.5128326,87.3292439 C92.8485064,87.3260077 93.3427437,87.3260077 93.9955444,87.3292439 C94.6620302,87.3566574 95.1630728,87.3805523 95.4986725,87.4009287 C95.8342721,87.421305 96.3361083,87.4583012 97.0041809,87.5119171 L98.5276642,87.6932114 L100.051098,87.95422 L101.066635,88.1915741 L102.077319,88.4675485 C102.723137,88.674603 103.204057,88.8361923 103.520081,88.9523163 C103.836104,89.0684403 104.303253,89.2552231 104.921527,89.5126646 L107.099909,81.6126695 L105,80.8185878 L102.034775,79.9630397 L99.0215103,79.4598166 L96.0095377,79.2245212 C95.1109664,79.1964484 94.4396353,79.1796047 93.9955444,79.1739901 C93.5514536,79.1683756 92.8905122,79.1683756 92.0127203,79.1739901 L89.9966708,79.2726443 L87.9948278,79.4598166 C87.090027,79.6060161 86.4156552,79.7232366 85.9717126,79.8114782 C85.5277699,79.8997197 84.8703137,80.0472238 83.9993439,80.2539904 L82.5343488,80.7060182 L81.0849037,81.2685625 L80,81.729747 L78.9857466,82.2668897 C78.543252,82.5333518 78.2110708,82.7399707 77.989203,82.8867463 C77.7673351,83.0335218 77.4339129,83.2672297 76.9889361,83.5878699 C76.5179336,83.9536924 76.1719358,84.2338324 75.9509429,84.4282899 C75.72995,84.6227474 75.4129691,84.9259798 75,85.3379871 C74.5801533,84.9259798 74.2606888,84.6227474 74.0416065,84.4282899 C73.8225243,84.2338324 73.484742,83.9536924 73.0282596,83.5878699 C72.5861261,83.2672297 72.2523783,83.0335218 72.0270161,82.8867463 C71.8016539,82.7399707 71.4593152,82.5333518 71,82.2668897 C70.327048,81.9105875 69.8242356,81.6579513 69.4915626,81.5089812 C69.1588896,81.3600111 68.6636831,81.1657368 68.0059431,80.9261585 L66.5131462,80.3846634 L65.0101809,80.0039094 L62.0031586,79.4803772 L59.9947377,79.2726443 L58,79.1739901 L56.5003586,79.1739901 L55.0017395,79.1940918 C54.1208002,79.2306069 53.4589502,79.2636269 53.0161896,79.2931519 C52.5734289,79.3226768 51.9007707,79.3850853 50.9982147,79.4803772 L49.4805908,79.6863251 L48.0080278,79.9840698 L46.7137604,80.2971649 L45.4322357,80.6793213 L44.1568604,81.1166077 L42.882309,81.6126695 L45.065979,89.5126646 C45.7707287,89.2108718 46.2865508,89.0019133 46.6134451,88.8857893 C46.9403394,88.7696653 47.4052003,88.6302517 48.0080278,88.4675485 L49.4112576,88.0742911 L51.0168938,87.765967 C51.685259,87.6645094 52.1855822,87.5935007 52.5178635,87.5529408 C52.8501448,87.512381 53.3466655,87.4617103 54.0074255,87.4009287 L55.5238645,87.3292439 L57.026359,87.3292439 L59.0051584,87.4009287 L60.9965118,87.6932114 C61.4449998,87.7875002 61.7805488,87.8650489 62.0031586,87.9258575 C62.2257684,87.9866662 62.5580488,88.0915433 63,88.240489 L64.0292274,88.6301351 L65.0101809,89.1405645 L65.8893394,89.7134558 L66.6504154,90.3748858 C66.9624948,90.709355 67.1895772,90.9668737 67.3316626,91.1474419 C67.4737481,91.3280102 67.6729219,91.6121962 67.9291841,92 L68.4497169,92.9779877 L68.8687588,93.9801557 L69.369438,95.4247352 L69.7183018,96.9438189 L69.8977936,97.9415359 L70,98.5378137 L70,104.257339 L45.1899109,104.217743 L45.1899109,112.355103 L70,112.355103 L70,169.962627 L67.0345908,171.627315 C66.133272,172.04455 65.4584687,172.343851 65.0101809,172.52522 C64.561893,172.706588 63.8918327,172.951391 63,173.259629 L60.9965118,173.793896 L60.0008351,173.999654 L59.0051584,174.205412 L57.5131253,174.415232 L56.0210922,174.625053 L54.0074255,174.76685 L53.005943,174.78322 L52.0044605,174.799589 L51.0168938,174.76685 L50,174.689327 L48.9927618,174.52002 L48.0080278,174.32113 L46.9852811,174.036636 L46,173.718607 L45.0067295,173.305081 L44.0134591,172.891555 C43.655967,172.713833 43.3914818,172.579102 43.2200035,172.487362 C43.0485252,172.395623 42.7912891,172.256624 42.4482951,172.070367 C42.1217729,171.885215 41.8783686,171.744582 41.7180823,171.648468 C41.557796,171.552354 41.3203413,171.404644 41.0057183,171.20534 L40.2258701,170.686813 L39.4722111,170.132136 L38.7285968,169.553084 L38,168.959537 C37.5297593,168.547689 37.1835278,168.235825 36.9613056,168.023946 C36.7390834,167.812067 36.4186482,167.488294 36,167.052626 L33.3706665,164.063432 Z" id="path-1" stroke="#0B69AF" />
            <path d="M86,68 C85.5569995,63.9462141 90.4094068,51.8346149 94.0930156,44.6857143 C97.7766244,37.5368137 100.896526,33.7931632 103.561577,30.7994323 C109.277371,24.3787121 112.734022,23.8790221 113.931529,23.3003624 C117.574392,21.5400574 123.674596,19.4676278 127.813914,19 C134.945955,18.1942777 138.255891,18.4742545 142.651109,19 C147.046327,19.5257455 147.633122,20.6341164 150.744125,22.7428571 C153.855127,24.8515978 156.488304,28.0285714 157.83714,30.0857143 C159.185976,32.1428571 161.756871,37.9109422 162.883648,43.3142857 C163.634833,46.9165147 163.634833,50.5736576 162.883648,54.2857143 C162.669947,57.9428571 162.220335,59.7714286 161.534812,59.7714286 C160.506528,59.7714286 160.492628,59.0309858 158.83714,54.2857143 C157.181653,49.5404428 157.468838,47.5505465 156.271845,44.6857143 C155.473849,42.7758262 154.227895,40.9472547 152.533981,39.2 C148.712806,36.0666667 145.418515,33.8333333 142.651109,32.5 C139.883703,31.1666667 135.951456,30.5 130.854369,30.5 L121.883495,32 C118.388541,33.0364314 115.149059,34.5364314 112.165049,36.5 C107.689034,39.4453529 110.059637,36.7219501 104.68932,43.3142857 C101.109109,47.7091761 98.0266197,52.2806047 95.4418515,57.0285714 C89.4426175,67.0453811 86.2953337,70.7025239 86,68 Z M153.715749,31.7454999 C152.387058,29.4660952 146.442261,23.4464523 139.56178,22.249847 C128.06178,20.249847 118.319121,27.3853689 119.06178,27.749847 C119.804439,28.114325 121.56178,27.749847 122.56178,27.749847 C123.56178,27.749847 126.184266,25.6754261 129.56178,25.2986385 C133.372952,24.8734731 137.45683,25.1476934 138.039238,25.2986385 C141.631663,26.2297024 144.344831,27.5675074 147.559111,29.5227784 C149.356481,30.6161329 152.625967,35.2138074 154.355105,35.8380755 C156.084243,36.4623435 155.04444,34.0249046 153.715749,31.7454999 Z" id="path-2" />
            <path d="M77.75,48 C76.4833851,40.4003104 77.1069854,32.9944901 77,29.25 C76.8930146,25.5055099 76.4565338,25.010797 77,21.75 C77.5434662,18.489203 77.5597014,19.3418844 79.25,15.75 C80.9402986,12.1581156 80.7294759,11.6489448 83,9 C85.2705241,6.35105516 86.0535873,5.60163856 88.25,4.25 C90.4464127,2.89836144 91.25,2 96.5,2 C101.75,2 106.264299,2.81607468 107,3 C107.735701,3.18392532 107.948161,3.61789254 105.5,5.25 C104.27054,6.0696399 102.621114,6.50862258 100.974759,6.99525539 C99.3428112,7.47762987 97.7138815,8.0068242 96.5,9 C94.061521,10.9951192 92.9489674,11.7694961 91,14.25 C89.0510326,16.7305039 88.5102317,17.4521235 87.25,19.5 C85.9897683,21.5478765 85.75,22.5 85,24 C84.25,25.5 83.5286408,28.987864 83,30.75 C82.6475728,31.9247574 82.3975728,33.1747574 82.25,34.5 L81.5,39 L80.75,42.125 L80,47.25 C79.34441,52.8164597 78.59441,53.0664597 77.75,48 Z M91.9284713,6.73967936 C88.8938225,9.56800474 85.0368938,10.6589409 82.279882,15.3183008 L80.0004508,25.3075139 C83.5940783,25.8113166 82.765172,18.5578737 84.6992495,15.4874794 C86.5076728,12.6165641 88.998064,10.2367277 91.1474713,7.61135187 L91.9284713,6.73967936 Z" id="path-3" />
            <path d="M69,69.5037037 C66.3437445,64.8654225 64.4031747,56.1642846 63.25,53.1333333 C62.0968253,50.1023821 59.2847535,43.2638621 58,40.44 C56.7152465,37.6161379 56.125,37.04 55,35 C53.875,32.96 54.3949367,33.1985419 52.75,30.92 C51.6533755,29.400972 50.4033755,27.9906017 49,26.6888889 L44.5,22.9111111 L36.25,16.8666667 L32.5,14.6 L27.25,13.0888889 C24.0833333,12.4740741 21.5833333,12.2222222 19.75,12.3333333 C17.9166667,12.4444444 14.8235294,13.6533333 10.4705882,15.96 L2.35294118,18.68 C0.0824038618,19.2741713 -0.36857653,18.3675046 1,15.96 C2.36857653,13.5524954 4.62347849,11.2858287 7.76470588,9.16 L14.5294118,5.08 C17.8251484,3.01008605 20.9820111,1.65008605 24,1 C27.0179889,0.349913953 30.1748516,0.349913953 33.4705882,1 L38.8823529,2.36 C42.6552523,3.25810223 45.3611346,4.16476889 47,5.08 C48.0563534,5.66992487 50.7433778,7.38634965 53.0610732,10.2292743 C53.9131148,11.274403 56.402561,14.9979782 60.5294118,21.4 L64.5882353,30.92 L67.2941176,40.44 L68.6470588,47.24 L70,56.76 C71.1041703,68.34799 70.770837,72.5958912 69,69.5037037 Z M43.2039824,9.30076049 C40.4253014,6.81740634 35.6516461,5.73533104 28.8830167,6.0545346 C28.3077763,6.64722542 26.4531656,7.48530232 27.1572956,7.83260705 C30.6341878,9.5475478 34.8219021,8.69084397 38.2043812,10.6522002 C42.7925381,13.312678 46.1898637,18.2493866 50.5515477,21.3979424 C51.3481016,21.9729484 53.6439929,22.6292291 53.3467733,21.5829934 C52.0629696,17.0639065 45.9008882,11.7110308 43.2039824,9.30076049 Z" id="path-4" />
            <path d="M57.9204681,70.9189224 C58.4222536,73.6565356 56.4151113,73.1587877 55.662433,72.412166 C55.1606474,71.9144181 54.1570762,70.4211746 52.6517195,67.9324354 L49.8918989,64.6970744 C49.4470858,64.0511116 49.1125621,63.5533637 48.8883277,63.2038308 C48.6640933,62.8542979 48.3295696,62.522466 47.8847566,62.2083351 C47.2208384,61.8121721 46.551791,61.4803402 45.8776143,61.2128394 C45.2034375,60.9453387 44.3671282,60.7794228 43.3686864,60.7150916 L41.3615441,60.7150916 C40.0234492,60.7150916 39.0198781,60.8810076 38.3508306,61.2128394 C37.3472595,61.7105873 35.4016641,63.0641309 33.8347604,63.4527048 C32.2678568,63.8412786 31.4278428,63.6523505 30.824047,63.4527048 C30.2202512,63.253059 30.2141059,63.1308491 30.0713686,62.706083 C29.9762105,62.4229056 29.9762105,61.9251577 30.0713686,61.2128394 L30.824047,59.7195959 C31.3689578,58.9846351 31.8707434,58.2380134 32.3294037,57.4797306 C33.0173943,56.3423065 33.3329749,55.2398653 36.0927955,53.7466218 C37.932676,52.7511261 40.1907111,52.7511261 42.8669008,53.7466218 C43.9397492,54.1860519 44.9433203,54.6837997 45.8776143,55.2398653 C47.2790552,56.0739636 48.5096942,56.5274158 50.3936844,58.2263524 C52.2776746,59.925289 52.7431026,60.3216701 54.1570762,62.706083 C55.5710499,65.0904959 57.4186825,68.1813093 57.9204681,70.9189224 Z M36.1828175,58.8676961 C36.816269,59.3784304 39.041813,58.5034185 40.6030907,58.2435001 C41.8221918,58.0405465 45.3884743,59.0576276 45.0132748,57.8107796 C44.6380753,56.5639316 42.1721325,56.477819 41.1773585,56.1771431 C36.8709912,56.0243015 35.5054275,58.3215355 36.1828175,58.8676961 Z" id="path-5" />
        </g>
    </g>
</svg>
