<svg width="14px" height="13px" viewBox="0 0 14 13">
    <title>ProfileIcon</title>
    <g id="icon" stroke="none" strokeWidth="1" fill="none" fillRule="evenodd">
        <g id="profile" transform="translate(-85.000000, -142.000000)" stroke="#4370A2">
            <g id="ProfileIcon" transform="translate(86.000000, 142.000000)">
                <ellipse id="round" cx="5.89473684" cy="3.10344828" rx="2.65789474" ry="2.60344828" />
                <path d="M3.7950558,6.06957801 C3.46056357,6.17042843 2.711034,6.65447226 2.14709608,7.11810433 C1.58315816,7.58173639 1.44655411,7.88852086 1.24634361,8.16704596 C1.0461331,8.44557105 0.853597037,8.81027521 0.630215159,9.29418609 C0.481293907,9.61679334 0.366881574,9.94286936 0.286978158,10.2724141 L0.134404166,11.3146145 L1.0573016,11.51215 L2.66153305,11.7523974 C3.28269376,11.8416047 3.92406911,11.9012995 4.5856591,11.9314818 C5.57804408,11.9767552 5.62635838,11.9314818 6.57406419,11.9314818 C7.20586807,11.9314818 7.83444969,11.9053652 8.45980906,11.8531322 L9.84929826,11.6968314 L10.9361586,11.51215 L11.8184449,11.3146145 C11.8623737,11.0812564 11.8283084,10.7338563 11.7162492,10.2724141 C11.5481602,9.58025088 11.5127992,9.47305488 11.2312285,8.89655172 C10.9496578,8.32004857 10.753285,8.10207104 10.4919946,7.76580851 C10.2307041,7.42954598 10.2924161,7.49370242 9.84929826,7.11810433 C9.40618047,6.74250623 9.10001813,6.53627962 8.87287803,6.39340347 C8.72145129,6.2981527 8.49364887,6.19021088 8.18947077,6.06957801" id="path-1" strokeLinejoin="bevel" />
            </g>
        </g>
    </g>
</svg>
