<?xml version="1.0" encoding="UTF-8"?>
<svg width="20px" height="21px" viewBox="0 0 20 21" version="1.1" xmlns="http://www.w3.org/2000/svg" xmlns:xlink="http://www.w3.org/1999/xlink">
    <!-- Generator: Sketch 52.5 (67469) - http://www.bohemiancoding.com/sketch -->
    <title>RefreshIcon</title>
    <desc>Created with Sketch.</desc>
    <g id="Page-1" stroke="none" stroke-width="1" fill="none" fill-rule="evenodd">
        <g id="Desktop-HD" transform="translate(-1025.000000, -20.000000)">
            <g id="RefreshIcon" transform="translate(1027.000000, 20.000000)">
                <path d="M15.3955137,13.484966 C15.0513335,15.003828 14.9227677,15.4060166 14.0249891,16.2941753 C13.1272106,17.1823341 12.5113761,17.8978814 10.7091795,18.3068693 C8.90698292,18.7158573 7.87268769,18.8623963 6.71946759,18.5821644 C5.56624749,18.3019326 5.49373002,18.3283692 4.3436287,17.5972909 C3.19352737,16.8662127 3.01082545,16.9503827 2.14523134,15.8737609 C1.27963722,14.7971391 1.3982282,14.9196137 0.887743542,13.7577302 C0.547420436,12.9831413 0.288487232,12.1645531 0.110943929,11.3019657 C-0.0369813097,10.8232754 -0.0369813097,10.1454299 0.110943929,9.26842934 C0.332831788,7.95292845 0.289241381,7.84371829 0.887743542,6.69657363 C1.4862457,5.54942897 1.68971862,5.15263415 2.56189035,4.32977502 C3.43406209,3.50691589 4.62705668,2.74507392 5.92351556,2.32267287 C7.21997443,1.90027183 8.46670634,1.99161415 9.07878283,2.05416346 C9.69085931,2.11671277 10.692381,2.43295252 11.098612,2.69917213 C11.504843,2.96539175 12.6411329,3.3428621 13.5993172,4.32977502" id="Path-3" stroke="#0067B1" stroke-width="3"></path>
                <polygon id="Triangle" fill="#0B69AF" transform="translate(15.473723, 6.690823) rotate(134.000000) translate(-15.473723, -6.690823) " points="15.7574402 3.45638173 20.8255842 9.9252636 10.1218625 9.49979892"></polygon>
            </g>
        </g>
    </g>
</svg>